<?xml version="1.0" encoding="utf-8"?>
<!-- Generator: Adobe Illustrator 22.0.1, SVG Export Plug-In . SVG Version: 6.00 Build 0)  -->
<svg version="1.1" id="Layer_1" xmlns="http://www.w3.org/2000/svg" width="20" height="20" xmlns:xlink="http://www.w3.org/1999/xlink" x="0px" y="0px"
	 viewBox="0 0 20 20" style="enable-background:new 0 0 20 20;" xml:space="preserve">
<g>
	<path d="M0.1,1.2c0.1-0.3,0.4-0.4,0.7-0.4c2.4,0,4.7,0,7.1,0c0.5,0,0.7,0.2,0.7,0.7c0,2.4,0,4.8,0,7.1c0,0.5-0.2,0.7-0.7,0.7
		c-2.4,0-4.7,0-7.1,0c-0.3,0-0.6-0.1-0.7-0.4C0.1,6.3,0.1,3.7,0.1,1.2z M1.3,1.9c0,2.1,0,4.2,0,6.3c2.1,0,4.2,0,6.3,0
		c0-2.1,0-4.2,0-6.3C5.4,1.9,3.4,1.9,1.3,1.9z" fill="#808080"/>
	<path d="M0.1,11.6c0.1-0.3,0.4-0.4,0.7-0.4c2.4,0,4.7,0,7.1,0c0.5,0,0.7,0.2,0.7,0.7c0,2.4,0,4.7,0,7.1c0,0.3-0.1,0.6-0.4,0.7
		c-2.6,0-5.1,0-7.7,0c-0.1-0.1-0.3-0.3-0.4-0.4C0.1,16.8,0.1,14.2,0.1,11.6z M7.5,12.3c-2.1,0-4.2,0-6.3,0c0,2.1,0,4.2,0,6.3
		c2.1,0,4.2,0,6.3,0C7.5,16.5,7.5,14.4,7.5,12.3z" fill="#808080" />
	<path d="M14.7,19.7C14.7,19.7,14.7,19.7,14.7,19.7c-0.3-0.2-0.5-0.4-0.4-0.7c0.1-0.3,0.3-0.4,0.6-0.4c0.9,0,1.7,0,2.6,0
		c0.2,0,0.3,0,0.5,0c0-0.4,0-0.7,0-1.1c-0.1,0-0.2,0-0.2,0c-0.9,0-1.9,0-2.8,0c-0.5,0-0.7-0.2-0.7-0.7c0-0.8,0-1.6,0-2.4
		c0-0.4,0.4-0.7,0.8-0.5c0.2,0.1,0.3,0.3,0.3,0.5c0,0.6,0,1.2,0,1.8c0,0.1,0,0.1,0,0.2c0.1,0,0.2,0,0.2,0c0.9,0,1.9,0,2.8,0
		c0.5,0,0.7,0.2,0.7,0.7c0,0.6,0,1.3,0,1.9c0,0.3-0.1,0.6-0.4,0.7C17.4,19.7,16,19.7,14.7,19.7z" fill="#808080"/>
	<path d="M11,19.7c-0.3-0.1-0.4-0.4-0.4-0.7c0-0.7,0-1.3,0-2c0-0.4,0.4-0.7,0.7-0.6c0.2,0.1,0.4,0.3,0.4,0.5c0,0.7,0,1.5,0,2.2
		c0,0.3-0.2,0.4-0.4,0.5C11.2,19.7,11.1,19.7,11,19.7z" fill="#808080"/>
	<path d="M14.9,0.8c1.2,0,2.4,0,3.6,0c0.5,0,0.7,0.2,0.7,0.7c0,2.4,0,4.8,0,7.2c0,0.5-0.2,0.7-0.7,0.7c-2.4,0-4.8,0-7.2,0
		c-0.5,0-0.7-0.2-0.7-0.7c0-2.4,0-4.8,0-7.2c0-0.5,0.2-0.7,0.7-0.7C12.5,0.8,13.7,0.8,14.9,0.8z M18,8.2c0-2.1,0-4.2,0-6.3
		c-2.1,0-4.2,0-6.3,0c0,2.1,0,4.2,0,6.3C13.8,8.2,15.9,8.2,18,8.2z" fill="#808080"/>
	<path d="M11.7,12.3c0,0.7,0,1.3,0,2c0,0.4-0.4,0.7-0.8,0.5c-0.2-0.1-0.3-0.3-0.3-0.5c0-0.9,0-1.7,0-2.6c0-0.3,0.2-0.5,0.6-0.5
		c0.9,0,1.7,0,2.6,0c0.3,0,0.6,0.3,0.6,0.6c0,0.3-0.2,0.5-0.6,0.6c-0.6,0-1.2,0-1.8,0C11.9,12.3,11.8,12.3,11.7,12.3z" fill="#808080"/>
	<path d="M19.1,13.1c0,0.4,0,0.8,0,1.2c0,0.4-0.2,0.6-0.6,0.6c-0.3,0-0.6-0.2-0.6-0.6c0-0.8,0-1.7,0-2.5c0-0.4,0.2-0.6,0.6-0.6
		c0.3,0,0.6,0.2,0.6,0.6C19.1,12.2,19.1,12.7,19.1,13.1z" fill="#808080"/>
	<path d="M6.1,5c0,0.4,0,0.7,0,1.1c0,0.4-0.2,0.6-0.6,0.6c-0.7,0-1.4,0-2.1,0C3,6.7,2.7,6.5,2.7,6.1c0-0.7,0-1.4,0-2.1
		c0-0.4,0.2-0.6,0.6-0.6c0.7,0,1.4,0,2.1,0c0.4,0,0.6,0.2,0.6,0.6C6.1,4.3,6.1,4.7,6.1,5z M3.9,4.5c0,0.4,0,0.7,0,1.1
		c0.4,0,0.7,0,1.1,0c0-0.4,0-0.7,0-1.1C4.6,4.5,4.2,4.5,3.9,4.5z" fill="#808080"/>
	<path d="M4.4,17.2c-0.3,0-0.7,0-1,0c-0.4,0-0.6-0.2-0.6-0.6c0-0.7,0-1.4,0-2.1c0-0.4,0.2-0.6,0.6-0.6c0.7,0,1.4,0,2.1,0
		c0.4,0,0.6,0.2,0.6,0.6c0,0.7,0,1.4,0,2.1c0,0.4-0.2,0.6-0.6,0.6C5.1,17.2,4.7,17.2,4.4,17.2z M3.8,16c0.4,0,0.7,0,1.1,0
		c0-0.4,0-0.7,0-1.1c-0.4,0-0.7,0-1.1,0C3.8,15.3,3.8,15.7,3.8,16z" fill="#808080"/>
	<path d="M13.2,5c0-0.3,0-0.7,0-1c0-0.4,0.2-0.6,0.6-0.6c0.7,0,1.4,0,2.1,0c0.4,0,0.6,0.2,0.6,0.6c0,0.7,0,1.4,0,2.1
		c0,0.4-0.2,0.6-0.6,0.6c-0.7,0-1.4,0-2.1,0c-0.4,0-0.6-0.2-0.6-0.6C13.2,5.7,13.2,5.4,13.2,5z M15.4,4.5c-0.4,0-0.7,0-1.1,0
		c0,0.4,0,0.7,0,1.1c0.4,0,0.7,0,1.1,0C15.4,5.2,15.4,4.8,15.4,4.5z" fill="#808080" />
</g>
</svg>
